<svg width="222" height="177" viewBox="0 0 222 177" fill="none" xmlns="http://www.w3.org/2000/svg">
<ellipse cx="142.663" cy="82.4856" rx="48.1273" ry="48.1165" fill="#FFCB66"/>
<path d="M113.303 6.90238L136.935 23.9134L110.384 35.8685L113.303 6.90238Z" fill="#FFCB66"/>
<path d="M168.904 7.25468L171.154 36.2805L144.886 23.7151L168.904 7.25468Z" fill="#FFCB66"/>
<path d="M209.114 36.1854L196.596 62.4709L180.086 38.4897L209.114 36.1854Z" fill="#FFCB66"/>
<path d="M221.481 84.8579L195.825 98.6289L196.724 69.5299L221.481 84.8579Z" fill="#FFCB66"/>
<path d="M71.1573 36.3566L100.222 38.1332L84.1509 62.4104L71.1573 36.3566Z" fill="#FFCB66"/>
<path d="M209.199 132.25L180.135 130.458L196.219 106.19L209.199 132.25Z" fill="#FFCB66"/>
<ellipse cx="30.939" cy="145.208" rx="30.939" ry="31.7913" fill="#C9CFD9"/>
<ellipse cx="44.6898" cy="113.417" rx="17.1883" ry="37.8058" fill="#C9CFD9"/>
<ellipse cx="74.7694" cy="104.825" rx="36.9549" ry="37.8058" fill="#C9CFD9"/>
<ellipse cx="69.6126" cy="91.9367" rx="36.9549" ry="26.6359" fill="#C9CFD9"/>
<ellipse cx="55.8621" cy="109.121" rx="26.6419" ry="40.3835" fill="#C9CFD9"/>
<ellipse cx="142.663" cy="145.208" rx="30.939" ry="31.7913" fill="#C9CFD9"/>
<rect x="30.939" y="115.136" width="113.443" height="61.8641" fill="#C9CFD9"/>
<ellipse cx="116.88" cy="115.135" rx="22.3448" ry="18.9029" fill="#C9CFD9"/>
</svg>
