<svg width="75" height="70" viewBox="0 0 75 70" fill="none" xmlns="http://www.w3.org/2000/svg">
<path d="M46.891 39.7224C54.5665 39.7224 60.7888 33.5001 60.7888 25.8246C60.7888 18.149 54.5665 11.9268 46.891 11.9268C39.2154 11.9268 32.9932 18.149 32.9932 25.8246C32.9932 33.5001 39.2154 39.7224 46.891 39.7224Z" fill="#FFCB66"/>
<path d="M38.4135 3.99365L45.2375 8.90705L37.5703 12.3601L38.4135 3.99365Z" fill="#FFCB66"/>
<path d="M54.4689 4.09521L55.1185 12.479L47.5332 8.84958L54.4689 4.09521Z" fill="#FFCB66"/>
<path d="M66.0798 12.4517L62.4649 20.044L57.6973 13.1173L66.0798 12.4517Z" fill="#FFCB66"/>
<path d="M69.6519 26.5098L62.2432 30.4874L62.5029 22.0825L69.6519 26.5098Z" fill="#FFCB66"/>
<path d="M26.2422 12.501L34.6354 13.0141L29.9944 20.0263L26.2422 12.501Z" fill="#FFCB66"/>
<path d="M66.1048 40.1986L57.7119 39.6811L62.3565 32.6714L66.1048 40.1986Z" fill="#FFCB66"/>
<path d="M14.6286 53.1242C19.5629 53.1242 23.563 49.0131 23.563 43.9418C23.563 38.8704 19.5629 34.7593 14.6286 34.7593C9.69436 34.7593 5.69434 38.8704 5.69434 43.9418C5.69434 49.0131 9.69436 53.1242 14.6286 53.1242Z" fill="#DEE6F3"/>
<path d="M18.5992 45.6788C21.3405 45.6788 23.5627 40.7898 23.5627 34.7591C23.5627 28.7283 21.3405 23.8394 18.5992 23.8394C15.858 23.8394 13.6357 28.7283 13.6357 34.7591C13.6357 40.7898 15.858 45.6788 18.5992 45.6788Z" fill="#DEE6F3"/>
<path d="M27.2858 43.1973C33.1795 43.1973 37.9573 38.3084 37.9573 32.2776C37.9573 26.2468 33.1795 21.3579 27.2858 21.3579C21.3921 21.3579 16.6143 26.2468 16.6143 32.2776C16.6143 38.3084 21.3921 43.1973 27.2858 43.1973Z" fill="#DEE6F3"/>
<path d="M25.7965 36.2482C31.6902 36.2482 36.468 32.8037 36.468 28.5548C36.468 24.3058 31.6902 20.8613 25.7965 20.8613C19.9028 20.8613 15.125 24.3058 15.125 28.5548C15.125 32.8037 19.9028 36.2482 25.7965 36.2482Z" fill="#DEE6F3"/>
<path d="M21.8253 45.1824C26.0742 45.1824 29.5187 39.9602 29.5187 33.5182C29.5187 27.0762 26.0742 21.854 21.8253 21.854C17.5763 21.854 14.1318 27.0762 14.1318 33.5182C14.1318 39.9602 17.5763 45.1824 21.8253 45.1824Z" fill="#DEE6F3"/>
<path d="M46.8913 53.1242C51.8256 53.1242 55.8257 49.0131 55.8257 43.9418C55.8257 38.8704 51.8256 34.7593 46.8913 34.7593C41.9571 34.7593 37.957 38.8704 37.957 43.9418C37.957 49.0131 41.9571 53.1242 46.8913 53.1242Z" fill="#DEE6F3"/>
<path d="M47.388 35.2554H14.6289V53.124H47.388V35.2554Z" fill="#DEE6F3"/>
<path d="M39.4457 40.7151C43.0094 40.7151 45.8983 38.2707 45.8983 35.2553C45.8983 32.2399 43.0094 29.7954 39.4457 29.7954C35.8821 29.7954 32.9932 32.2399 32.9932 35.2553C32.9932 38.2707 35.8821 40.7151 39.4457 40.7151Z" fill="#DEE6F3"/>
<path d="M53.5085 55.6841H14.1401C13.1518 55.6841 12.3506 56.4853 12.3506 57.4736V57.4736C12.3506 58.4619 13.1518 59.263 14.1401 59.263H53.5085C54.4968 59.263 55.298 58.4619 55.298 57.4736C55.298 56.4853 54.4968 55.6841 53.5085 55.6841Z" fill="#A2ACBA"/>
<path d="M57.0873 66.4209H16.5258C15.5375 66.4209 14.7363 67.2221 14.7363 68.2104V68.2104C14.7363 69.1987 15.5375 69.9998 16.5258 69.9998H57.0873C58.0756 69.9998 58.8767 69.1987 58.8767 68.2104C58.8767 67.2221 58.0756 66.4209 57.0873 66.4209Z" fill="#A2ACBA"/>
<path d="M45.1579 60.4561H5.78947C4.80117 60.4561 4 61.2572 4 62.2455V62.2455C4 63.2338 4.80117 64.035 5.78947 64.035H45.1579C46.1462 64.035 46.9474 63.2338 46.9474 62.2455C46.9474 61.2572 46.1462 60.4561 45.1579 60.4561Z" fill="#A2ACBA"/>
</svg>
