<svg width="222" height="238" viewBox="0 0 222 238" fill="none" xmlns="http://www.w3.org/2000/svg">
<ellipse cx="139.468" cy="85.8267" rx="50.065" ry="50.065" fill="#FFCB66"/>
<path d="M108.926 7.18342L133.509 24.8833L105.889 37.3226L108.926 7.18342Z" fill="#FFCB66"/>
<path d="M166.768 7.54846L169.108 37.7498L141.783 24.6754L166.768 7.54846Z" fill="#FFCB66"/>
<path d="M208.594 37.6504L195.572 65.0003L178.397 40.048L208.594 37.6504Z" fill="#FFCB66"/>
<path d="M221.46 88.2931L194.771 102.622L195.707 72.3444L221.46 88.2931Z" fill="#FFCB66"/>
<path d="M65.0836 37.829L95.3189 39.6776L78.6004 64.9379L65.0836 37.829Z" fill="#FFCB66"/>
<path d="M208.683 137.603L178.449 135.739L195.18 110.488L208.683 137.603Z" fill="#FFCB66"/>
<ellipse cx="32.1847" cy="140.362" rx="32.1847" ry="33.0787" fill="#DEE6F3"/>
<ellipse cx="46.4873" cy="107.281" rx="17.8804" ry="39.3368" fill="#DEE6F3"/>
<ellipse cx="77.7802" cy="98.3417" rx="38.4428" ry="39.3368" fill="#DEE6F3"/>
<ellipse cx="72.4149" cy="84.9323" rx="38.4428" ry="27.7146" fill="#DEE6F3"/>
<ellipse cx="58.1106" cy="102.811" rx="27.7146" ry="42.0188" fill="#DEE6F3"/>
<ellipse cx="148.405" cy="140.362" rx="32.1847" ry="33.0787" fill="#DEE6F3"/>
<rect x="32.1831" y="109.07" width="118.01" height="64.3693" fill="#DEE6F3"/>
<ellipse cx="121.587" cy="109.069" rx="23.2445" ry="19.6684" fill="#DEE6F3"/>
<rect x="32.1875" y="175.228" width="3.57607" height="5.36411" fill="#DEE6F3"/>
<rect width="3.57607" height="5.36411" transform="matrix(-1 0 0 1 48.2808 175.228)" fill="#DEE6F3"/>
<rect width="3.57607" height="5.36411" transform="matrix(-1 0 0 1 62.583 175.228)" fill="#DEE6F3"/>
<rect width="3.57608" height="5.36411" transform="matrix(-1 0 0 1 76.8877 175.228)" fill="#DEE6F3"/>
<rect width="3.57607" height="5.36411" transform="matrix(-1 0 0 1 89.4048 175.228)" fill="#DEE6F3"/>
<rect width="3.57607" height="5.36411" transform="matrix(-1 0 0 1 103.709 175.228)" fill="#DEE6F3"/>
<rect width="3.57607" height="5.36411" transform="matrix(-1 0 0 1 118.012 175.228)" fill="#DEE6F3"/>
<rect width="3.57608" height="5.36411" transform="matrix(-1 0 0 1 132.316 175.228)" fill="#DEE6F3"/>
<rect width="3.5761" height="5.36411" transform="matrix(-1 0 0 1 146.623 175.228)" fill="#DEE6F3"/>
<rect width="3.57608" height="5.36411" transform="matrix(-1 0 0 1 159.136 175.228)" fill="#DEE6F3"/>
<rect x="32.187" y="189.532" width="3.57607" height="5.36411" fill="#DEE6F3"/>
<rect width="3.57607" height="5.36411" transform="matrix(-1 0 0 1 48.2808 189.532)" fill="#DEE6F3"/>
<rect width="3.57607" height="5.36411" transform="matrix(-1 0 0 1 62.583 189.532)" fill="#DEE6F3"/>
<rect width="3.57608" height="5.36411" transform="matrix(-1 0 0 1 76.8877 189.532)" fill="#DEE6F3"/>
<rect width="3.57607" height="5.36411" transform="matrix(-1 0 0 1 89.4048 189.532)" fill="#DEE6F3"/>
<rect width="3.57607" height="5.36411" transform="matrix(-1 0 0 1 103.709 189.532)" fill="#DEE6F3"/>
<rect width="3.57607" height="5.36411" transform="matrix(-1 0 0 1 118.012 189.532)" fill="#DEE6F3"/>
<rect width="3.57608" height="5.36411" transform="matrix(-1 0 0 1 132.316 189.532)" fill="#DEE6F3"/>
<rect width="3.5761" height="5.36411" transform="matrix(-1 0 0 1 146.623 189.532)" fill="#DEE6F3"/>
<rect width="3.57608" height="5.36411" transform="matrix(-1 0 0 1 159.136 189.532)" fill="#DEE6F3"/>
<rect x="32.187" y="203.837" width="3.57607" height="5.36412" fill="#DEE6F3"/>
<rect width="3.57607" height="5.36412" transform="matrix(-1 0 0 1 48.2808 203.837)" fill="#DEE6F3"/>
<rect width="3.57607" height="5.36412" transform="matrix(-1 0 0 1 62.583 203.837)" fill="#DEE6F3"/>
<rect width="3.57608" height="5.36412" transform="matrix(-1 0 0 1 76.8877 203.837)" fill="#DEE6F3"/>
<rect width="3.57607" height="5.36412" transform="matrix(-1 0 0 1 89.4048 203.837)" fill="#DEE6F3"/>
<rect width="3.57607" height="5.36412" transform="matrix(-1 0 0 1 103.709 203.837)" fill="#DEE6F3"/>
<rect width="3.57607" height="5.36412" transform="matrix(-1 0 0 1 118.012 203.837)" fill="#DEE6F3"/>
<rect width="3.57608" height="5.36412" transform="matrix(-1 0 0 1 132.316 203.837)" fill="#DEE6F3"/>
<rect width="3.5761" height="5.36412" transform="matrix(-1 0 0 1 146.623 203.837)" fill="#DEE6F3"/>
<rect width="3.57608" height="5.36412" transform="matrix(-1 0 0 1 159.136 203.837)" fill="#DEE6F3"/>
<rect x="32.187" y="218.141" width="3.57607" height="5.36412" fill="#DEE6F3"/>
<rect width="3.57607" height="5.36412" transform="matrix(-1 0 0 1 48.2808 218.141)" fill="#DEE6F3"/>
<rect width="3.57607" height="5.36412" transform="matrix(-1 0 0 1 62.583 218.141)" fill="#DEE6F3"/>
<rect width="3.57608" height="5.36412" transform="matrix(-1 0 0 1 76.8877 218.141)" fill="#DEE6F3"/>
<rect width="3.57607" height="5.36412" transform="matrix(-1 0 0 1 89.4048 218.141)" fill="#DEE6F3"/>
<rect width="3.57607" height="5.36412" transform="matrix(-1 0 0 1 103.709 218.141)" fill="#DEE6F3"/>
<rect width="3.57607" height="5.36412" transform="matrix(-1 0 0 1 118.012 218.141)" fill="#DEE6F3"/>
<rect width="3.57608" height="5.36412" transform="matrix(-1 0 0 1 132.316 218.141)" fill="#DEE6F3"/>
<rect width="3.5761" height="5.36412" transform="matrix(-1 0 0 1 146.623 218.141)" fill="#DEE6F3"/>
<rect width="3.57608" height="5.36412" transform="matrix(-1 0 0 1 159.136 218.141)" fill="#DEE6F3"/>
<rect x="32.187" y="232.445" width="3.57607" height="5.36411" fill="#DEE6F3"/>
<rect width="3.57607" height="5.36411" transform="matrix(-1 0 0 1 48.2808 232.445)" fill="#DEE6F3"/>
<rect width="3.57607" height="5.36411" transform="matrix(-1 0 0 1 62.583 232.445)" fill="#DEE6F3"/>
<rect width="3.57608" height="5.36411" transform="matrix(-1 0 0 1 76.8877 232.445)" fill="#DEE6F3"/>
<rect width="3.57607" height="5.36411" transform="matrix(-1 0 0 1 89.4048 232.445)" fill="#DEE6F3"/>
<rect width="3.57607" height="5.36411" transform="matrix(-1 0 0 1 103.709 232.445)" fill="#DEE6F3"/>
<rect width="3.57607" height="5.36411" transform="matrix(-1 0 0 1 118.012 232.445)" fill="#DEE6F3"/>
<rect width="3.57608" height="5.36411" transform="matrix(-1 0 0 1 132.316 232.445)" fill="#DEE6F3"/>
<rect width="3.5761" height="5.36411" transform="matrix(-1 0 0 1 146.623 232.445)" fill="#DEE6F3"/>
<rect width="3.57608" height="5.36411" transform="matrix(-1 0 0 1 159.136 232.445)" fill="#DEE6F3"/>
</svg>
