<svg width="222" height="233" viewBox="0 0 222 233" fill="none" xmlns="http://www.w3.org/2000/svg">
<ellipse cx="112.902" cy="114.398" rx="66.1814" ry="66.7315" fill="#FFCB66"/>
<path d="M72.5284 9.57288L105.024 33.165L68.5134 49.7453L72.5284 9.57288Z" fill="#FFCB66"/>
<path d="M148.986 10.0633L152.079 50.3185L115.958 32.8918L148.986 10.0633Z" fill="#FFCB66"/>
<path d="M204.28 50.1865L187.066 86.6411L164.362 53.3821L204.28 50.1865Z" fill="#FFCB66"/>
<path d="M221.286 117.69L186.006 136.788L187.243 96.4315L221.286 117.69Z" fill="#FFCB66"/>
<path d="M14.5578 50.4156L54.5042 52.8897L32.4237 86.5707L14.5578 50.4156Z" fill="#FFCB66"/>
<path d="M204.399 183.414L164.432 180.929L186.549 147.271L204.399 183.414Z" fill="#FFCB66"/>
<path d="M151.856 221.992L119.775 197.829L156.569 181.896L151.856 221.992Z" fill="#FFCB66"/>
<path d="M73.8088 223.816L69.0697 183.724L105.874 199.631L73.8088 223.816Z" fill="#FFCB66"/>
<path d="M16.2316 182.022L34.3817 146.032L56.2181 179.876L16.2316 182.022Z" fill="#FFCB66"/>
<path d="M0.359689 114.68L35.3452 95.0422L34.7222 135.413L0.359689 114.68Z" fill="#FFCB66"/>
</svg>
