<svg width="222" height="203" viewBox="0 0 222 203" fill="none" xmlns="http://www.w3.org/2000/svg">
<ellipse cx="28.7194" cy="61.24" rx="22.237" ry="24.365" fill="#7C8EAA"/>
<ellipse cx="38.6029" cy="36.876" rx="12.3539" ry="28.9746" fill="#7C8EAA"/>
<ellipse cx="60.2205" cy="30.293" rx="26.5609" ry="28.9746" fill="#7C8EAA"/>
<ellipse cx="56.5154" cy="20.4139" rx="26.5609" ry="20.4139" fill="#7C8EAA"/>
<ellipse cx="46.6329" cy="33.584" rx="19.1485" ry="30.9502" fill="#7C8EAA"/>
<ellipse cx="109.019" cy="61.24" rx="22.237" ry="24.365" fill="#7C8EAA"/>
<rect x="28.7173" y="38.1943" width="81.5357" height="47.413" fill="#7C8EAA"/>
<ellipse cx="90.4893" cy="38.1944" rx="16.0601" ry="14.4873" fill="#7C8EAA"/>
<ellipse rx="29.168" ry="31.9593" transform="matrix(-1 0 0 1 192.832 104.515)" fill="#97A7C0"/>
<ellipse rx="16.2044" ry="38.0057" transform="matrix(-1 0 0 1 179.869 72.5545)" fill="#97A7C0"/>
<ellipse rx="34.8396" ry="38.0057" transform="matrix(-1 0 0 1 151.512 63.9168)" fill="#97A7C0"/>
<ellipse rx="34.8396" ry="26.7767" transform="matrix(-1 0 0 1 156.373 50.9613)" fill="#97A7C0"/>
<ellipse rx="25.1169" ry="40.597" transform="matrix(-1 0 0 1 169.336 68.2366)" fill="#97A7C0"/>
<ellipse rx="29.168" ry="31.9593" transform="matrix(-1 0 0 1 87.5034 104.515)" fill="#97A7C0"/>
<rect width="106.949" height="62.1911" transform="matrix(-1 0 0 1 192.833 74.2832)" fill="#97A7C0"/>
<ellipse rx="21.0658" ry="19.0028" transform="matrix(-1 0 0 1 111.81 74.2841)" fill="#97A7C0"/>
<ellipse cx="29.168" cy="121.792" rx="29.168" ry="31.9593" fill="#DEE6F3"/>
<ellipse cx="42.1312" cy="89.8319" rx="16.2044" ry="38.0057" fill="#DEE6F3"/>
<ellipse cx="70.49" cy="81.1942" rx="34.8396" ry="38.0057" fill="#DEE6F3"/>
<ellipse cx="65.6281" cy="68.2387" rx="34.8396" ry="26.7767" fill="#DEE6F3"/>
<ellipse cx="52.6638" cy="85.514" rx="25.1169" ry="40.597" fill="#DEE6F3"/>
<ellipse cx="134.497" cy="121.792" rx="29.168" ry="31.9593" fill="#DEE6F3"/>
<rect x="29.1685" y="91.5605" width="106.949" height="62.1911" fill="#DEE6F3"/>
<ellipse cx="110.192" cy="91.5614" rx="21.0658" ry="19.0028" fill="#DEE6F3"/>
<path d="M78.6723 86.9048L78.6723 136.139L40.5917 136.139L78.6723 86.9048Z" fill="#619ED5"/>
<rect x="78.6714" y="115.41" width="27.5476" height="20.7304" fill="#619ED5"/>
<path d="M106.035 136.242L98.9287 115.409L123.235 115.409L106.035 136.242Z" fill="#619ED5"/>
<path d="M53.9451 198.257L79.4821 132.686L108.65 132.686L53.9451 198.257Z" fill="#619ED5"/>
</svg>
