<svg width="180" height="107" viewBox="0 0 180 107" fill="none" xmlns="http://www.w3.org/2000/svg">
<g clip-path="url(#clip0)" filter="url(#filter0_d)">
<path d="M40.111 72.45C60.0546 72.45 76.222 56.2315 76.222 36.225C76.222 16.2185 60.0546 0 40.111 0C20.1674 0 4 16.2185 4 36.225C4 56.2315 20.1674 72.45 40.111 72.45Z" fill="#13212F"/>
<path d="M81.1563 67.0501C81.1563 85.6896 68.8203 99 46.3914 99C25.7564 99 11.626 85.6896 11.626 67.0501C11.626 48.4102 27.1909 33.3 46.3914 33.3C65.5918 33.3 81.1563 48.4102 81.1563 67.0501Z" fill="#B0BED4"/>
<path d="M128.707 45.0001C128.707 66.8706 109.928 84.6001 86.7639 84.6001C63.5995 84.6001 44.8213 66.8706 44.8213 45.0001C44.8213 23.1294 63.5995 5.3999 86.7639 5.3999C109.928 5.3999 128.707 23.1294 128.707 45.0001Z" fill="#B0BED4"/>
<path d="M175.808 75.8252C175.808 88.6241 164.46 99.0001 150.462 99.0001C136.465 99.0001 125.118 88.6241 125.118 75.8252C125.118 63.0259 136.465 52.6499 150.462 52.6499C164.46 52.6499 175.808 63.0259 175.808 75.8252Z" fill="#B0BED4"/>
<path d="M128.706 71.0999C142.085 71.0999 152.93 60.3212 152.93 47.0249C152.93 33.7287 142.085 22.95 128.706 22.95C115.328 22.95 104.483 33.7287 104.483 47.0249C104.483 60.3212 115.328 71.0999 128.706 71.0999Z" fill="#B0BED4"/>
<path d="M144.407 63.4502H53.3442V99.0002H144.407V63.4502Z" fill="#B0BED4"/>
<path d="M135.435 24.75H105.829V34.2H135.435V24.75Z" fill="#B0BED4"/>
<path d="M151.136 97.1997H143.061V98.9997H151.136V97.1997Z" fill="#2C80B9"/>
<path d="M46.167 96.7581C46.167 96.7536 46.1706 96.75 46.1751 96.75H151.576C151.58 96.75 151.584 96.7536 151.584 96.7581V98.9918C151.584 98.9963 151.58 98.9999 151.576 98.9999H46.1751C46.1706 98.9999 46.167 98.9963 46.167 98.9918V96.7581Z" fill="#B0BED4"/>
<path d="M40 63.3283C40 69.409 44.6114 73.6567 50.2957 73.6567C54.501 73.6567 58.1263 71.5619 59.6634 67.6051H55.6901C54.617 69.7581 52.7029 70.7764 50.2957 70.7764C46.2935 70.7764 43.3933 67.8961 43.3933 63.3283C43.3933 58.7606 46.2935 55.9094 50.2957 55.9094C52.7029 55.9094 54.617 56.9277 55.6901 59.0806H59.6634C58.1263 55.1239 54.501 53 50.2957 53C44.6114 53 40 57.2768 40 63.3283ZM74.6705 53.2328H63.5336V73.4821H74.6705V70.7764H66.8399V64.5794H73.8005V61.8736H66.8399V55.9385H74.6705V53.2328ZM91.997 53.2328V68.3034L82.0492 53.2328H78.743V73.4821H82.0492V58.3824L91.997 73.4821H95.3033V53.2328H91.997ZM113.247 67.7506C113.247 60.3608 102.574 63.212 102.574 58.6442C102.574 56.6949 104.053 55.7639 105.967 55.8221C108.055 55.8803 109.245 57.1313 109.361 58.4987H113.015C112.725 55.0366 109.999 53 106.141 53C102.023 53 99.2098 55.2111 99.2098 58.7606C99.2098 66.2086 109.912 63.0374 109.912 67.9252C109.912 69.6417 108.607 70.8927 106.286 70.8927C103.995 70.8927 102.835 69.5544 102.69 67.8961H99.1518C99.1518 71.4746 102.255 73.6858 106.286 73.6858C110.782 73.6858 113.247 70.7764 113.247 67.7506ZM117.148 73.4821H120.454V53.2618H117.148V73.4821ZM135.497 59.3134C135.497 61.3208 134.337 62.7464 131.756 62.7464H128.102V55.9676H131.756C134.337 55.9676 135.497 57.2768 135.497 59.3134ZM124.795 53.2618V73.4821H128.102V65.394H130.625L135.265 73.4821H139.21L134.221 65.1031C137.615 64.2593 138.891 61.6991 138.891 59.3134C138.891 56.0258 136.541 53.2618 131.756 53.2618H124.795Z" fill="#141D26"/>
<path d="M120.964 43.6804C120.964 43.6804 119.332 43.0105 118.907 41.5877C118.907 41.5877 118.058 40.265 116.107 39.4976C114.156 38.7302 113.999 38.0837 113.999 38.0837C113.999 38.0837 112.346 37.3576 113.293 40.1816C113.293 40.1816 115.538 41.2996 116.048 42.9717C116.558 44.6438 114.008 45.1303 114.008 45.1303C114.008 45.1303 112.902 45.7805 116.116 46.8957C119.33 48.0106 120.246 49.4002 120.246 49.4002C120.246 49.4002 120.618 49.7154 121.108 49.3622C121.108 49.3622 121.001 48.6874 122.468 49.3651C122.468 49.3651 125.254 50.1227 123.921 47.8906C123.921 47.8906 122.274 47.8534 121.855 47.2853C121.436 46.7171 123.744 45.003 128.575 43.0351C128.575 43.0351 129.933 40.2414 128.181 40.2048C126.428 40.1681 120.964 43.6804 120.964 43.6804Z" fill="#141D26"/>
</g>
<defs>
<filter id="filter0_d" x="0" y="0" width="180" height="107" filterUnits="userSpaceOnUse" color-interpolation-filters="sRGB">
<feFlood flood-opacity="0" result="BackgroundImageFix"/>
<feColorMatrix in="SourceAlpha" type="matrix" values="0 0 0 0 0 0 0 0 0 0 0 0 0 0 0 0 0 0 127 0"/>
<feOffset dy="4"/>
<feGaussianBlur stdDeviation="2"/>
<feColorMatrix type="matrix" values="0 0 0 0 0 0 0 0 0 0 0 0 0 0 0 0 0 0 0.25 0"/>
<feBlend mode="normal" in2="BackgroundImageFix" result="effect1_dropShadow"/>
<feBlend mode="normal" in="SourceGraphic" in2="effect1_dropShadow" result="shape"/>
</filter>
<clipPath id="clip0">
<rect width="172" height="99" fill="white" transform="translate(4)"/>
</clipPath>
</defs>
</svg>
