<svg width="276" height="156" viewBox="0 0 276 156" fill="none" xmlns="http://www.w3.org/2000/svg">
<g clip-path="url(#clip0)">
<path d="M44.3688 3.54231C55.3905 0.367441 67.166 0.869576 77.869 4.97081C88.572 9.07204 97.6043 16.5432 103.565 26.2255C109.526 35.9078 112.082 47.2602 110.837 58.522C109.592 69.7837 104.616 80.3255 96.6796 88.5123C88.7434 96.6992 78.291 102.073 66.9436 103.802C55.5962 105.53 43.9879 103.516 33.919 98.0712C23.8501 92.6267 15.8835 84.0562 11.2545 73.6891C6.62562 63.3219 5.59315 51.7375 8.31729 40.7324C10.1646 44.9787 13.0497 48.7071 16.7146 51.5842C20.3795 54.4613 24.71 56.3974 29.3187 57.2194C33.9275 58.0415 38.6709 57.7238 43.1247 56.2947C47.5786 54.8657 51.6041 52.3699 54.8413 49.0305C58.0784 45.6911 60.4264 41.6122 61.6751 37.1585C62.9238 32.7049 63.0344 28.0153 61.997 23.5091C60.9595 19.003 58.8065 14.8207 55.7302 11.3364C52.654 7.85204 48.7505 5.17419 44.3688 3.54231Z" fill="#141D26"/>
<path d="M123.809 105.655C123.809 135.026 104.014 156 68.0237 156C34.9116 156 12.2373 135.026 12.2373 105.655C12.2373 76.2826 37.2135 52.4727 68.0237 52.4727C98.8335 52.4727 123.809 76.2826 123.809 105.655Z" fill="#B0BED4"/>
<path d="M200.11 70.9095C200.11 105.372 169.977 133.31 132.807 133.31C95.6364 133.31 65.5039 105.372 65.5039 70.9095C65.5039 36.4467 95.6364 8.50928 132.807 8.50928C169.977 8.50928 200.11 36.4467 200.11 70.9095Z" fill="#B0BED4"/>
<path d="M275.691 119.482C275.691 139.65 257.482 156 235.021 156C212.56 156 194.352 139.65 194.352 119.482C194.352 99.3134 212.56 82.9634 235.021 82.9634C257.482 82.9634 275.691 99.3134 275.691 119.482Z" fill="#B0BED4"/>
<path d="M200.109 112.036C221.576 112.036 238.979 95.0516 238.979 74.0999C238.979 53.1483 221.576 36.1636 200.109 36.1636C178.641 36.1636 161.238 53.1483 161.238 74.0999C161.238 95.0516 178.641 112.036 200.109 112.036Z" fill="#B0BED4"/>
<path d="M225.304 99.9819H79.1807V156H225.304V99.9819Z" fill="#B0BED4"/>
<path d="M236.1 153.164H223.144V156H236.1V153.164Z" fill="#2C80B9"/>
<path d="M67.6641 152.467C67.6641 152.46 67.6699 152.455 67.677 152.455H236.809C236.816 152.455 236.822 152.46 236.822 152.467V155.987C236.822 155.994 236.816 156 236.809 156H67.677C67.6699 156 67.6641 155.994 67.6641 155.987V152.467Z" fill="#B0BED4"/>
<path d="M57.7686 99.7901C57.7686 109.372 65.1682 116.065 74.2895 116.065C81.0376 116.065 86.855 112.764 89.3215 106.529H82.9457C81.2238 109.922 78.1522 111.526 74.2895 111.526C67.8674 111.526 63.2136 106.988 63.2136 99.7901C63.2136 92.5924 67.8674 88.0996 74.2895 88.0996C78.1522 88.0996 81.2238 89.7042 82.9457 93.0967H89.3215C86.855 86.8618 81.0376 83.5151 74.2895 83.5151C65.1682 83.5151 57.7686 90.2543 57.7686 99.7901ZM113.403 83.8819H95.5318V115.79H113.403V111.526H100.837V101.761H112.007V97.4978H100.837V88.1455H113.403V83.8819ZM141.206 83.8819V107.63L125.243 83.8819H119.937V115.79H125.243V91.9964L141.206 115.79H146.511V83.8819H141.206ZM175.304 106.759C175.304 95.1139 158.178 99.6067 158.178 92.4091C158.178 89.3374 160.551 87.8704 163.623 87.9621C166.974 88.0538 168.882 90.0251 169.068 92.1798H174.932C174.467 86.7243 170.092 83.5151 163.902 83.5151C157.294 83.5151 152.78 86.9993 152.78 92.5924C152.78 104.329 169.952 99.3316 169.952 107.034C169.952 109.738 167.858 111.71 164.135 111.71C160.458 111.71 158.597 109.601 158.364 106.988H152.686C152.686 112.627 157.666 116.111 164.135 116.111C171.348 116.111 175.304 111.526 175.304 106.759ZM181.564 115.79H186.87V83.9277H181.564V115.79ZM211.008 93.4635C211.008 96.6268 209.147 98.8732 205.005 98.8732H199.141V88.1913H205.005C209.147 88.1913 211.008 90.2543 211.008 93.4635ZM193.836 83.9277V115.79H199.141V103.045H203.19L210.636 115.79H216.965L208.961 102.587C214.406 101.257 216.453 97.2228 216.453 93.4635C216.453 88.283 212.684 83.9277 205.005 83.9277H193.836Z" fill="#141D26"/>
<path d="M187.686 68.8304C187.686 68.8304 185.067 67.7747 184.385 65.5327C184.385 65.5327 183.023 63.4485 179.892 62.2392C176.761 61.0301 176.51 60.0114 176.51 60.0114C176.51 60.0114 173.857 58.8672 175.376 63.3171C175.376 63.3171 178.979 65.0788 179.797 67.7136C180.615 70.3484 176.523 71.115 176.523 71.115C176.523 71.115 174.749 72.1395 179.907 73.8969C185.064 75.6537 186.533 77.8434 186.533 77.8434C186.533 77.8434 187.131 78.34 187.917 77.7835C187.917 77.7835 187.745 76.7202 190.099 77.788C190.099 77.788 194.569 78.9819 192.431 75.4645C192.431 75.4645 189.787 75.406 189.116 74.5107C188.443 73.6155 192.147 70.9144 199.899 67.8135C199.899 67.8135 202.078 63.4113 199.266 63.3536C196.454 63.2958 187.686 68.8304 187.686 68.8304Z" fill="#141D26"/>
</g>
<defs>
<clipPath id="clip0">
<rect width="276" height="156" fill="white"/>
</clipPath>
</defs>
</svg>
